<?xml version="1.0" encoding="utf-8"?>
<!-- Generator: Adobe Illustrator 24.3.0, SVG Export Plug-In . SVG Version: 6.00 Build 0)  -->
<svg version="1.1" id="Layer_1" xmlns="http://www.w3.org/2000/svg" xmlns:xlink="http://www.w3.org/1999/xlink" x="0px" y="0px"
	 viewBox="0 0 321.95 55.6" style="enable-background:new 0 0 321.95 55.6;" xml:space="preserve">
<style type="text/css">
	.st0{fill:#FFFFFF;}
	.st1{fill:#F26522;}
	.st2{fill:none;stroke:#F26522;stroke-width:2;stroke-miterlimit:10;}
</style>
<g>
	<path class="st0" d="M108.71,44.14l-4.04-31.77h7.26l3.54,28.09h-3.81l15.02-28.09h6.81l3.4,28.09h-3.63l14.93-28.09h7.31
		l-16.79,31.77h-7.85l-3.18-24.69h2.22l-13.3,24.69H108.71z"/>
	<path class="st0" d="M163.9,44.51c-2.54,0-4.74-0.45-6.6-1.36c-1.86-0.91-3.31-2.18-4.33-3.81c-1.03-1.63-1.54-3.55-1.54-5.76
		c0-2.72,0.61-5.15,1.84-7.28c1.23-2.13,2.92-3.82,5.08-5.06c2.16-1.24,4.65-1.86,7.47-1.86c2.39,0,4.45,0.45,6.17,1.34
		c1.72,0.89,3.06,2.13,4.02,3.72s1.43,3.49,1.43,5.7c0,0.63-0.04,1.27-0.11,1.91c-0.08,0.64-0.17,1.24-0.29,1.82h-20.19l0.73-4.13
		h16.16l-2.9,1.27c0.24-1.36,0.17-2.5-0.23-3.43c-0.39-0.92-1.03-1.63-1.91-2.13c-0.88-0.5-1.94-0.75-3.18-0.75
		c-1.54,0-2.85,0.37-3.93,1.11c-1.07,0.74-1.88,1.76-2.43,3.06c-0.54,1.3-0.82,2.77-0.82,4.4c0,1.88,0.52,3.28,1.57,4.2
		s2.62,1.38,4.74,1.38c1.24,0,2.44-0.2,3.59-0.59c1.15-0.39,2.13-0.95,2.95-1.68l2.95,4.67c-1.42,1.12-3.02,1.94-4.79,2.47
		C167.55,44.24,165.74,44.51,163.9,44.51z"/>
	<path class="st0" d="M179.42,44.14l6.72-33.67h7.08l-2.86,14.2l-1.91,7.12l-1.09,6.26l-1.23,6.08H179.42z M195.03,44.51
		c-1.88,0-3.52-0.33-4.92-1c-1.41-0.67-2.5-1.69-3.27-3.06s-1.16-3.11-1.16-5.2c0-2.21,0.27-4.28,0.82-6.22
		c0.54-1.94,1.35-3.62,2.41-5.06c1.06-1.44,2.35-2.56,3.88-3.38c1.53-0.82,3.26-1.23,5.2-1.23c1.91,0,3.66,0.43,5.26,1.29
		s2.89,2.1,3.86,3.72c0.97,1.62,1.45,3.59,1.45,5.92c0,2.03-0.35,3.91-1.04,5.65c-0.7,1.74-1.66,3.25-2.88,4.52
		c-1.22,1.27-2.65,2.26-4.29,2.97C198.7,44.15,196.94,44.51,195.03,44.51z M194.21,38.65c1.42,0,2.66-0.34,3.72-1.02
		c1.06-0.68,1.9-1.62,2.52-2.81c0.62-1.19,0.93-2.59,0.93-4.2c0-1.66-0.48-2.98-1.45-3.95c-0.97-0.97-2.34-1.45-4.13-1.45
		c-1.36,0-2.59,0.34-3.68,1.02c-1.09,0.68-1.94,1.62-2.54,2.81c-0.61,1.2-0.91,2.59-0.91,4.2c0,1.66,0.48,2.98,1.45,3.95
		C191.1,38.17,192.46,38.65,194.21,38.65z"/>
	<path class="st0" d="M227.52,44.37c-3.12,0-5.76-0.54-7.94-1.63c-2.18-1.09-3.83-2.62-4.97-4.58s-1.7-4.25-1.7-6.85
		c0-2.57,0.44-5.01,1.32-7.31c0.88-2.3,2.15-4.34,3.81-6.13c1.66-1.78,3.68-3.18,6.06-4.2c2.37-1.01,5.06-1.52,8.05-1.52
		c2.48,0,4.67,0.38,6.58,1.13c1.91,0.76,3.39,1.83,4.45,3.22l-1.63,1.5c-1.03-1.24-2.34-2.17-3.93-2.79
		c-1.59-0.62-3.47-0.93-5.65-0.93c-2.57,0-4.89,0.45-6.94,1.34c-2.06,0.89-3.81,2.12-5.26,3.68c-1.45,1.56-2.57,3.36-3.36,5.4
		c-0.79,2.04-1.18,4.21-1.18,6.51c0,2.18,0.47,4.1,1.41,5.76s2.34,2.96,4.2,3.88c1.86,0.92,4.15,1.38,6.88,1.38
		c2.18,0,4.15-0.32,5.92-0.98c1.77-0.65,3.29-1.6,4.56-2.84l1.41,1.59c-1.36,1.36-3.1,2.43-5.22,3.2
		C232.26,43.99,229.97,44.37,227.52,44.37z"/>
	<path class="st0" d="M260.6,20.27c2.15,0,3.9,0.42,5.24,1.25c1.35,0.83,2.27,2.01,2.77,3.54c0.5,1.53,0.54,3.32,0.11,5.38
		L266,44.14h-2.27l2.72-13.71c0.51-2.51,0.23-4.49-0.84-5.95s-2.94-2.18-5.6-2.18c-2.69,0-4.95,0.75-6.76,2.25s-3.03,3.73-3.63,6.69
		l-2.59,12.89h-2.27l6.72-33.67h2.27l-3.36,16.84l-0.63-0.59c1.12-2.24,2.62-3.87,4.49-4.9C256.13,20.79,258.24,20.27,260.6,20.27z"
		/>
	<path class="st0" d="M285.15,44.33c-2.03,0-3.81-0.39-5.35-1.18s-2.74-1.92-3.59-3.4c-0.85-1.48-1.27-3.24-1.27-5.26
		c0-2.06,0.33-3.95,0.98-5.67s1.58-3.22,2.79-4.49c1.21-1.27,2.63-2.26,4.27-2.97c1.63-0.71,3.42-1.07,5.35-1.07
		c2.09,0,3.86,0.37,5.31,1.11c1.45,0.74,2.56,1.81,3.34,3.22c0.77,1.41,1.16,3.11,1.16,5.1c0.03,2.81-0.49,5.33-1.57,7.53
		c-1.08,2.21-2.59,3.94-4.54,5.2C290.08,43.7,287.79,44.33,285.15,44.33z M285.61,42.28c2.15,0,4.05-0.51,5.72-1.54
		s2.98-2.46,3.95-4.29c0.97-1.83,1.45-3.89,1.45-6.19c0-2.54-0.73-4.5-2.2-5.88c-1.47-1.38-3.53-2.06-6.19-2.06
		c-2.12,0-4.02,0.52-5.7,1.57c-1.68,1.04-3,2.47-3.97,4.29c-0.97,1.81-1.45,3.87-1.45,6.17c0,2.51,0.73,4.46,2.2,5.85
		C280.88,41.59,282.95,42.28,285.61,42.28z M294.23,44.14l1.45-7.4l1.32-4.13l0.32-4.36l1.54-7.81h2.27l-4.72,23.69H294.23z"/>
	<path class="st0" d="M306.39,22.41l0.36-1.95h14.21l-0.36,1.95H306.39z M312.97,44.33c-1.3,0-2.4-0.27-3.29-0.82
		c-0.89-0.54-1.51-1.33-1.84-2.36c-0.33-1.03-0.36-2.25-0.09-3.68l4.45-22.19h2.27l-4.4,22.01c-0.33,1.66-0.22,2.93,0.34,3.79
		s1.6,1.29,3.11,1.29c0.73,0,1.41-0.11,2.06-0.34c0.65-0.23,1.25-0.55,1.79-0.98l0.68,1.68c-0.73,0.58-1.54,0.98-2.43,1.23
		C314.73,44.21,313.85,44.33,312.97,44.33z"/>
</g>
<polygon class="st1" points="71.59,45.47 71.59,52.34 4.29,52.34 15.58,35.28 15.58,2.68 71.59,2.68 71.59,45.21 73.59,45.21 
	73.59,0.68 13.58,0.68 13.58,34.68 0.57,54.34 73.59,54.34 73.59,45.47 "/>
<line class="st2" x1="29.86" y1="20.21" x2="61.16" y2="20.21"/>
<line class="st2" x1="26.38" y1="35.22" x2="57.68" y2="35.22"/>
</svg>
